<?xml version="1.0" encoding="UTF-8"?>
<svg width="64px" height="64px" viewBox="0 0 64 64" version="1.1" xmlns="http://www.w3.org/2000/svg" xmlns:xlink="http://www.w3.org/1999/xlink">
    <title>grid_buy_rate</title>
    <g id="grid_buy_rate" stroke="none" fill="none" fill-rule="evenodd">
        <path d="M32,8 C43.045695,8 52,16.954305 52,28 C52,39.045695 43.045695,48 32,48 C20.954305,48 12,39.045695 12,28 C12,16.954305 20.954305,8 32,8 Z M32,12 C23.163444,12 16,19.163444 16,28 C16,36.836556 23.163444,44 32,44 C40.836556,44 48,36.836556 48,28 C48,19.163444 40.836556,12 32,12 Z M32,17 C33.1045695,17 34,17.8954305 34,19 L34,24 L38,24 C39.1045695,24 40,24.8954305 40,26 C40,27.1045695 39.1045695,28 38,28 L34,28 L34,33 C34,34.1045695 33.1045695,35 32,35 C30.8954305,35 30,34.1045695 30,33 L30,28 L26,28 C24.8954305,28 24,27.1045695 24,26 C24,24.8954305 24.8954305,24 26,24 L30,24 L30,19 C30,17.8954305 30.8954305,17 32,17 Z" id="coin-plus" fill="#000000"></path>
        <path d="M32,52 L24,44 L40,44 L32,52 Z" id="pointer" fill="#000000"></path>
    </g>
</svg>
