<?xml version="1.0" encoding="UTF-8"?>
<svg width="64px" height="64px" viewBox="0 0 64 64" version="1.1" xmlns="http://www.w3.org/2000/svg" xmlns:xlink="http://www.w3.org/1999/xlink">
    <title>software_update_status</title>
    <g id="software_update_status" stroke="none" fill="none" fill-rule="evenodd">
        <path d="M32,8 C44.1502645,8 54,17.8497355 54,30 C54,42.1502645 44.1502645,52 32,52 C19.8497355,52 10,42.1502645 10,30 C10,17.8497355 19.8497355,8 32,8 Z M32,12 C22.0588745,12 14,20.0588745 14,30 C14,39.9411255 22.0588745,48 32,48 C41.9411255,48 50,39.9411255 50,30 C50,20.0588745 41.9411255,12 32,12 Z M30.5,17 L33.5,17 C34.3284271,17 35,17.6715729 35,18.5 L35,28 L39.5,28 C40.4023191,28 40.9330127,29.0176381 40.4,29.75 L32.9,40 C32.45,40.6153846 31.55,40.6153846 31.1,40 L23.6,29.75 C23.0669873,29.0176381 23.5976809,28 24.5,28 L29,28 L29,18.5 C29,17.6715729 29.6715729,17 30.5,17 Z" id="Shape" fill="#000000"></path>
    </g>
</svg>
